<?xml version="1.0" encoding="UTF-8" standalone="no"?>
<!-- Generator: Adobe Illustrator 21.0.2, SVG Export Plug-In . SVG Version: 6.00 Build 0)  -->

<svg
   xmlns:dc="http://purl.org/dc/elements/1.1/"
   xmlns:cc="http://creativecommons.org/ns#"
   xmlns:rdf="http://www.w3.org/1999/02/22-rdf-syntax-ns#"
   xmlns:svg="http://www.w3.org/2000/svg"
   xmlns="http://www.w3.org/2000/svg"
   xmlns:sodipodi="http://sodipodi.sourceforge.net/DTD/sodipodi-0.dtd"
   xmlns:inkscape="http://www.inkscape.org/namespaces/inkscape"
   version="1.1"
   x="0px"
   y="0px"
   viewBox="0 0 299.60001 34.5"
   xml:space="preserve"
   id="svg156"
   sodipodi:docname="logo.svg"
   width="299.60001"
   height="34.5"
   inkscape:version="0.92.2 (5c3e80d, 2017-08-06)"><metadata
     id="metadata162"><rdf:RDF><cc:Work
         rdf:about=""><dc:format>image/svg+xml</dc:format><dc:type
           rdf:resource="http://purl.org/dc/dcmitype/StillImage" /></cc:Work></rdf:RDF></metadata><defs
     id="defs160" /><sodipodi:namedview
     pagecolor="#ffffff"
     bordercolor="#666666"
     borderopacity="1"
     objecttolerance="10"
     gridtolerance="10"
     guidetolerance="10"
     inkscape:pageopacity="0"
     inkscape:pageshadow="2"
     inkscape:window-width="1321"
     inkscape:window-height="713"
     id="namedview158"
     showgrid="false"
     inkscape:zoom="0.95"
     inkscape:cx="156.9"
     inkscape:cy="19.1"
     inkscape:window-x="45"
     inkscape:window-y="27"
     inkscape:window-maximized="1"
     inkscape:current-layer="svg156" /><style
     type="text/css"
     id="style106">
	.st0{fill:#FFFFFF;}
</style><g
     id="Layer_1"
     transform="translate(-323.1,-264.6)"><g
       id="g126"><circle
         cx="463"
         cy="280.79999"
         r="15.5"
         id="circle108" /><g
         id="g114"><path
           class="st0"
           d="m 477.8,285.5 c -0.2,0.2 -1,0.8 -2.1,1.6 -2.6,1.9 -8.6,3.8 -14.8,2.5 -1.5,-0.3 -5.2,-0.6 -7.2,-2 -1.9,-1.4 -3.8,-2.1 -5.5,-2 0.2,0.8 0.6,1.5 0.9,2.2 4.1,1.4 6.6,3.8 9.5,4.6 5.1,1.4 8.9,0.5 12.4,-0.9 1.7,-0.7 3.8,-2 5.6,-3.2 0.5,-0.9 0.9,-1.8 1.2,-2.8 z"
           id="path110"
           inkscape:connector-curvature="0"
           style="fill:#ffffff" /><path
           class="st0"
           d="m 478.2,277.7 c -2.2,-1.6 -5.2,-4 -8.8,-5.5 -4.7,-2 -9,-0.6 -11.2,0.1 -1.9,0.6 -7.8,5 -10.7,7.3 0,0.4 -0.1,0.9 -0.1,1.3 0.4,-0.3 0.9,-0.6 1.2,-0.8 1.1,-0.6 3.7,-1.6 7,-3.6 1.8,-1.1 5.7,-2.6 7.3,-2.6 4.4,0 8.1,1 11.9,4.4 1.3,1.2 2.4,2.3 3.6,3.1 0,-0.2 0,-0.4 0,-0.6 0.2,-1.1 0.1,-2.1 -0.2,-3.1 z"
           id="path112"
           inkscape:connector-curvature="0"
           style="fill:#ffffff" /></g><path
         class="st0"
         d="m 477.7,275.9 c -0.3,-0.9 -0.7,-1.8 -1.2,-2.7 -1.5,-1.3 -3.9,-3.1 -6.4,-4.1 -1.5,-0.6 -4.2,-1.6 -6.9,-1.5 -2.1,0.1 -5.6,0.4 -8.9,3.3 -0.7,0.7 -5.3,4.8 -5.8,5.3 -0.1,0.1 -0.1,1.2 1,0.1 3.1,-3.2 10.3,-6.3 13.5,-6.5 1.8,-0.1 5.8,-0.3 10.6,3.1 2.4,1.6 3.4,2.5 3.8,2.8 0.2,0.1 0.3,0.1 0.3,0.2 z"
         id="path116"
         inkscape:connector-curvature="0"
         style="fill:#ffffff" /><path
         class="st0"
         d="m 477.9,282 c 0,0 -0.4,2.2 -2.7,3.1 1.3,-1.5 1.5,-4.3 1.5,-4.3 l -1.3,-1.2 c 0,0 0.3,3.7 -2.9,6.2 2.1,-4.4 0.6,-7.9 0.6,-7.9 0,0 -1,-0.7 -1.3,-0.8 0.4,0.9 0.6,1.9 0.6,3 0,4.5 -3.8,8.1 -8.6,8.1 -4.7,0 -8.6,-3.6 -8.6,-8.1 0,-0.9 0.2,-1.7 0.4,-2.5 -0.1,0 -0.1,0 -0.1,0 l -1.7,1 c 0,0 -0.6,3.9 0.3,6.2 -2.6,-2 -2.6,-5.3 -2.6,-5.3 l -1,0.6 c 0,0 0.4,2 0.1,3.1 -0.1,0.5 -0.5,1.6 -0.1,1.6 0.4,0 3,1.4 3.8,1.9 2.8,1.7 8.5,2.1 10,2.1 4.4,0 8.4,-1.1 9.9,-1.7 1,-0.4 2.7,-1.6 3.8,-2.7 0.2,-0.7 0.3,-1.4 0.4,-2.1 -0.2,-0.2 -0.5,-0.3 -0.5,-0.3 z"
         id="path118"
         inkscape:connector-curvature="0"
         style="fill:#ffffff" /><path
         class="st0"
         d="m 447.6,282.1 c 0.1,0.8 0.2,1.6 0.4,2.4 0.2,0 0.3,0 0.5,0 0.8,-0.5 1.5,-2.8 0.9,-3.9 0,0.1 -1,0.9 -1.8,1.5 z"
         id="path120"
         inkscape:connector-curvature="0"
         style="fill:#ffffff" /><ellipse
         class="st0"
         cx="467.5"
         cy="278.29999"
         rx="2.2"
         ry="2.0999999"
         id="ellipse122"
         style="fill:#ffffff" /><path
         class="st0"
         d="m 471.1,278.4 c -1.2,-0.4 -2.9,-0.1 -2.9,-0.1 0.1,0.3 0.2,0.6 0.2,0.9 v 0.4 c 0,0 0,0.1 0,0.1 0,0.1 0,0.3 0,0.4 l -0.1,0.4 c 0,0.2 -0.1,0.3 -0.1,0.5 l -0.1,0.4 c -0.1,0.2 -0.1,0.3 -0.2,0.5 l -0.2,0.4 c -0.1,0.1 -0.2,0.3 -0.3,0.4 l -0.3,0.3 c -0.1,0.1 -0.2,0.2 -0.4,0.3 l -0.4,0.2 c -0.1,0.1 -0.3,0.2 -0.4,0.2 l -0.4,0.2 c -0.1,0 -0.3,0.1 -0.4,0.1 l -0.4,0.1 c -0.1,0 -0.3,0 -0.4,0 h -0.4 c -0.1,0 -0.3,0 -0.4,-0.1 l -0.4,-0.1 c -0.1,0 -0.3,-0.1 -0.4,-0.1 l -0.4,-0.2 c -0.1,-0.1 -0.2,-0.1 -0.4,-0.2 l -0.4,-0.3 c -0.1,-0.1 -0.2,-0.2 -0.3,-0.3 l -0.3,-0.3 c -0.1,-0.1 -0.2,-0.2 -0.2,-0.3 l -0.2,-0.4 c -0.1,-0.1 -0.1,-0.2 -0.2,-0.4 l -0.1,-0.4 c 0,-0.1 -0.1,-0.3 -0.1,-0.4 l -0.4,-0.4 c 0,-0.1 -0.4,-0.2 -0.4,-0.3 0,0 0,-0.1 0,-0.1 l 0.4,-0.4 c 0,-0.2 0.2,-0.4 0.3,-0.6 -0.7,-0.3 -2,-0.5 -2.9,-0.5 -0.2,0.6 -0.2,1.3 -0.2,2 0,3.9 3.3,7.1 7.4,7.1 4.1,0 7.4,-3.2 7.4,-7.1 -0.4,-0.8 -0.5,-1.4 -0.6,-1.9 z"
         id="path124"
         inkscape:connector-curvature="0"
         style="fill:#ffffff" /></g></g><g
     id="Layer_2"
     transform="translate(-323.1,-264.6)"><g
       id="g153"><path
         d="m 341.3,292.1 h -18.2 v -1.5 h 3 v -23.4 h -3 v -1.5 h 16 v -1.1 h 1.8 v 6.4 h -1.8 v -3.4 h -9.5 v 10.2 h 7.6 v -3 h 1.8 v 7.9 h -1.8 v -3.1 h -7.6 v 10.7 h 9.8 v -3.5 h 1.8 v 5.3 z"
         id="path129"
         inkscape:connector-curvature="0" /><path
         d="m 360.6,292.1 h -14.2 v -1.5 h 3 v -15.4 h -3 v -1.6 h 9 v 1.6 h -3 v 15.3 h 6.7 v -2.4 h 1.4 v 4 z"
         id="path131"
         inkscape:connector-curvature="0" /><path
         d="m 373,278.9 c 0,-7.5 5.8,-13.7 12.9,-13.7 7,0 12.8,6.2 12.8,13.7 0,7.5 -5.8,13.7 -12.8,13.7 -7.1,0 -12.9,-6.2 -12.9,-13.7 z m 3.9,0 c 0,6.8 3.8,11.6 9,11.6 5.1,0 8.8,-4.9 8.8,-11.6 0,-6.7 -3.7,-11.6 -8.8,-11.6 -5.2,0 -9,4.8 -9,11.6 z"
         id="path133"
         inkscape:connector-curvature="0" /><path
         d="m 408.7,292.6 c -1.8,3.5 -2.4,4.3 -4.9,6.5 l -1,-1 c 2.4,-2.7 2.9,-4 2.9,-8.6 v -14.2 h -3 v -1.6 h 9.1 v 1.6 h -3 v 17.3 z"
         id="path135"
         inkscape:connector-curvature="0" /><path
         d="m 415.8,282.8 c 0,-5.2 4.4,-9.7 9.5,-9.7 5,0 9.4,4.5 9.4,9.7 0,5.2 -4.4,9.8 -9.4,9.8 -5.2,0 -9.5,-4.5 -9.5,-9.8 z m 3.4,0 c 0,4.5 2.7,8.1 6,8.1 3.4,0 6.1,-3.6 6.1,-8.1 0,-4.5 -2.7,-8 -6.1,-8 -3.4,0 -6,3.6 -6,8 z"
         id="path137"
         inkscape:connector-curvature="0" /><path
         d="m 489.4,292.1 v -1.5 h 3 v -23.4 h -3 v -1.5 h 11.8 c 7.2,0 13.1,5.9 13.1,13.2 0,7.3 -5.8,13.2 -13.1,13.2 z m 6.5,-2 h 4.8 c 5.3,0 9.6,-5 9.6,-11.1 0,-6.2 -4.3,-11.2 -9.5,-11.2 h -4.9 z"
         id="path139"
         inkscape:connector-curvature="0" /><path
         d="m 528,292.1 h -9 v -1.5 h 3 v -15.4 h -3 v -1.6 h 9 v 1.6 h -3 v 15.4 h 3 z"
         id="path141"
         inkscape:connector-curvature="0" /><path
         d="m 549.9,291.3 c -2.8,1 -4.5,1.3 -6.8,1.3 -6,0 -10.4,-4.1 -10.4,-9.7 0,-5.6 4.5,-9.8 10.3,-9.8 1.6,0 2.8,0.2 5,1 V 273 h 1.5 v 4.8 H 548 V 276 c -1.8,-0.9 -3,-1.3 -4.6,-1.3 -4.2,0 -7.3,3.4 -7.3,7.8 0,5 3.4,8.5 8.1,8.5 0.8,0 1.4,-0.1 2.6,-0.4 V 286 h -3 v -1.5 h 9.1 v 1.5 h -3 z"
         id="path143"
         inkscape:connector-curvature="0" /><path
         d="m 566,292.1 h -9 v -1.5 h 3 v -15.4 h -3 v -1.6 h 9 v 1.6 h -3 v 15.4 h 3 z"
         id="path145"
         inkscape:connector-curvature="0" /><path
         d="m 582.5,292.1 h -9.8 v -1.5 h 3.4 v -15.4 h -5.8 v 2.2 h -1.4 v -4.6 h 1.4 v 0.8 H 585 v -0.8 h 1.5 v 4.6 H 585 v -2.2 h -5.8 v 15.4 h 3.4 v 1.5 z"
         id="path147"
         inkscape:connector-curvature="0" /><path
         d="m 605.8,292.1 h -6.7 v -1.5 h 1.8 l -1.8,-4.4 h -7.3 l -1.9,4.4 h 2.3 v 1.5 h -5.6 v -1.5 h 1.5 l 7.7,-17.6 h 1 l 7.4,17.6 h 1.7 v 1.5 z m -7.4,-7.4 -2.9,-7 -3,7 z"
         id="path149"
         inkscape:connector-curvature="0" /><path
         d="m 622.7,292.1 h -14.2 v -1.5 h 3 v -15.4 h -3 v -1.6 h 9 v 1.6 h -3 v 15.3 h 6.7 v -2.4 h 1.4 v 4 z"
         id="path151"
         inkscape:connector-curvature="0" /></g></g></svg>